<svg width="33" height="29" viewBox="0 0 33 29" fill="none" xmlns="http://www.w3.org/2000/svg">
<path fill-rule="evenodd" clip-rule="evenodd" d="M8.59375 6.64583C8.59365 5.83821 8.8769 5.05021 9.4049 4.38919C9.9329 3.72817 10.68 3.22628 11.5443 2.95191C12.4087 2.67753 13.3483 2.64402 14.2351 2.85593C15.1219 3.06784 15.9128 3.51488 16.5 4.13612C17.2477 3.3368 18.3242 2.82911 19.4954 2.72337C20.6667 2.61764 21.8382 2.92241 22.7552 3.57146C23.6722 4.2205 24.2606 5.16136 24.3927 6.18955C24.5247 7.21775 24.1896 8.25019 23.4603 9.0625H24.75C25.2014 9.0625 25.6484 9.14063 26.0655 9.29244C26.4825 9.44425 26.8615 9.66677 27.1807 9.94728C27.4999 10.2278 27.7531 10.5608 27.9258 10.9273C28.0986 11.2938 28.1875 11.6866 28.1875 12.0833V13.5937C28.1875 13.8341 28.0789 14.0646 27.8855 14.2346C27.6921 14.4045 27.4298 14.5 27.1562 14.5H17.9438C17.8896 14.5 17.8359 14.4906 17.7859 14.4724C17.7358 14.4542 17.6904 14.4275 17.6521 14.3938C17.6138 14.3602 17.5834 14.3202 17.5626 14.2762C17.5419 14.2322 17.5312 14.1851 17.5312 14.1375V9.95666C17.1427 9.73776 16.7949 9.46755 16.5 9.15554C16.205 9.46712 15.8572 9.73692 15.4688 9.95545V14.1375C15.4688 14.2336 15.4253 14.3258 15.3479 14.3938C15.2706 14.4618 15.1657 14.5 15.0562 14.5H5.84375C5.57025 14.5 5.30794 14.4045 5.11455 14.2346C4.92115 14.0646 4.8125 13.8341 4.8125 13.5937V12.0833C4.8125 11.6866 4.90141 11.2938 5.07416 10.9273C5.24691 10.5608 5.50012 10.2278 5.81932 9.94728C6.13852 9.66677 6.51747 9.44425 6.93453 9.29244C7.35158 9.14063 7.79858 9.0625 8.25 9.0625H9.53975C8.9253 8.37279 8.59216 7.52176 8.59375 6.64583ZM15.4688 6.64583C15.4688 6.08501 15.2152 5.54715 14.764 5.15059C14.3127 4.75403 13.7007 4.53125 13.0625 4.53125C12.4243 4.53125 11.8123 4.75403 11.361 5.15059C10.9098 5.54715 10.6562 6.08501 10.6562 6.64583C10.6562 7.20665 10.9098 7.7445 11.361 8.14107C11.8123 8.53763 12.4243 8.76041 13.0625 8.76041C13.7007 8.76041 14.3127 8.53763 14.764 8.14107C15.2152 7.7445 15.4688 7.20665 15.4688 6.64583ZM17.5312 6.64583C17.5312 6.92352 17.5935 7.19849 17.7144 7.45504C17.8353 7.7116 18.0126 7.94471 18.236 8.14107C18.4595 8.33742 18.7247 8.49318 19.0167 8.59945C19.3086 8.70572 19.6215 8.76041 19.9375 8.76041C20.2535 8.76041 20.5664 8.70572 20.8583 8.59945C21.1503 8.49318 21.4155 8.33742 21.639 8.14107C21.8624 7.94471 22.0397 7.7116 22.1606 7.45504C22.2815 7.19849 22.3438 6.92352 22.3438 6.64583C22.3438 6.08501 22.0902 5.54715 21.639 5.15059C21.1877 4.75403 20.5757 4.53125 19.9375 4.53125C19.2993 4.53125 18.6873 4.75403 18.236 5.15059C17.7848 5.54715 17.5312 6.08501 17.5312 6.64583Z" fill="#2998AB"/>
<path d="M15.4688 16.4938C15.4688 16.3976 15.4253 16.3054 15.348 16.2374C15.2706 16.1694 15.1657 16.1313 15.0563 16.1313H7.76741C7.49748 16.1315 7.23634 16.2156 7.03006 16.3686C6.82377 16.5215 6.6856 16.7336 6.63991 16.9674C6.33455 18.5333 6.33455 20.1334 6.63991 21.6993L6.94791 23.281C7.04907 23.7992 7.33909 24.2746 7.77431 24.6355C8.20953 24.9964 8.76639 25.2233 9.36103 25.282L10.8254 25.4258C12.2283 25.5636 13.637 25.6503 15.048 25.6855C15.1029 25.6868 15.1575 25.6784 15.2085 25.6609C15.2596 25.6433 15.3062 25.6168 15.3454 25.5831C15.3846 25.5494 15.4158 25.5092 15.437 25.4647C15.4582 25.4202 15.469 25.3725 15.4688 25.3243V16.4938ZM17.952 25.6855C17.8972 25.6868 17.8426 25.6784 17.7915 25.6609C17.7404 25.6433 17.6939 25.6168 17.6547 25.5831C17.6154 25.5494 17.5843 25.5092 17.5631 25.4647C17.5419 25.4202 17.5311 25.3725 17.5313 25.3243V16.4938C17.5313 16.3976 17.5747 16.3054 17.6521 16.2374C17.7295 16.1694 17.8344 16.1313 17.9438 16.1313H25.2327C25.7909 16.1313 26.2667 16.4841 26.3602 16.9674C26.6668 18.5334 26.6668 20.1333 26.3602 21.6993L26.0535 23.281C25.9523 23.7994 25.6621 24.2749 25.2266 24.6359C24.7911 24.9968 24.2339 25.2235 23.639 25.282L22.1747 25.4258C20.7718 25.5635 19.3631 25.6502 17.952 25.6855Z" fill="#2998AB"/>
</svg>
