<svg width="24" height="24" viewBox="0 0 24 24" fill="none" xmlns="http://www.w3.org/2000/svg">
<path d="M11.988 0C5.364 0 0 5.376 0 12C0 18.624 5.364 24 11.988 24C18.624 24 24 18.624 24 12C24 5.376 18.624 0 11.988 0ZM7.8 7.2C8.796 7.2 9.6 8.004 9.6 9C9.6 9.996 8.796 10.8 7.8 10.8C6.804 10.8 6 9.996 6 9C6 8.004 6.804 7.2 7.8 7.2ZM12 19.2C9.264 19.2 6.936 17.208 6 14.4H18C17.064 17.208 14.736 19.2 12 19.2ZM16.2 10.8C15.204 10.8 14.4 9.996 14.4 9C14.4 8.004 15.204 7.2 16.2 7.2C17.196 7.2 18 8.004 18 9C18 9.996 17.196 10.8 16.2 10.8Z" fill="#E4A951"/>
</svg>
