<svg width="91" height="29" viewBox="0 0 91 29" fill="none" xmlns="http://www.w3.org/2000/svg">
<g filter="url(#filter0_d_1_430)">
<path d="M5 10.5C5 5.25329 9.2533 1 14.5 1H76.5C81.7467 1 86 5.25329 86 10.5C86 15.7467 81.7467 20 76.5 20H14.5C9.25329 20 5 15.7467 5 10.5Z" fill="white"/>
<path d="M14.5 0.5C8.97715 0.5 4.5 4.97715 4.5 10.5C4.5 16.0228 8.97715 20.5 14.5 20.5H76.5C82.0229 20.5 86.5 16.0228 86.5 10.5C86.5 4.97715 82.0229 0.5 76.5 0.5H14.5Z" stroke="#0E0D0D"/>
</g>
<defs>
<filter id="filter0_d_1_430" x="0" y="0" width="91" height="29" filterUnits="userSpaceOnUse" color-interpolation-filters="sRGB">
<feFlood flood-opacity="0" result="BackgroundImageFix"/>
<feColorMatrix in="SourceAlpha" type="matrix" values="0 0 0 0 0 0 0 0 0 0 0 0 0 0 0 0 0 0 127 0" result="hardAlpha"/>
<feOffset dy="4"/>
<feGaussianBlur stdDeviation="2"/>
<feComposite in2="hardAlpha" operator="out"/>
<feColorMatrix type="matrix" values="0 0 0 0 0 0 0 0 0 0 0 0 0 0 0 0 0 0 0.25 0"/>
<feBlend mode="normal" in2="BackgroundImageFix" result="effect1_dropShadow_1_430"/>
<feBlend mode="normal" in="SourceGraphic" in2="effect1_dropShadow_1_430" result="shape"/>
</filter>
</defs>
</svg>
