<svg width="43" height="44" viewBox="0 0 43 44" fill="none" xmlns="http://www.w3.org/2000/svg">
<path d="M12.0938 9.625C7.65938 9.625 4.03125 13.3375 4.03125 17.875C4.03125 20.603 5.34409 23.0312 7.34897 24.5355C3.8055 26.334 1.34375 30.063 1.34375 34.375H4.03125C4.03125 29.8045 7.62713 26.125 12.0938 26.125C16.5604 26.125 20.1562 29.8045 20.1562 34.375H22.8438C22.8438 29.8045 26.4396 26.125 30.9062 26.125C35.3729 26.125 38.9688 29.8045 38.9688 34.375H41.6562C41.6562 30.0616 39.1945 26.334 35.651 24.5355C36.677 23.7705 37.5121 22.7687 38.0886 21.6114C38.6651 20.4541 38.9666 19.174 38.9688 17.875C38.9688 13.3375 35.3406 9.625 30.9062 9.625C26.4719 9.625 22.8438 13.3375 22.8438 17.875C22.8438 20.603 24.1566 23.0312 26.1615 24.5355C24.1982 25.5232 22.5731 27.096 21.5 29.0469C20.4269 27.096 18.8018 25.5232 16.8385 24.5355C17.8645 23.7705 18.6996 22.7687 19.2761 21.6114C19.8526 20.4541 20.1541 19.174 20.1562 17.875C20.1562 13.3375 16.5281 9.625 12.0938 9.625ZM12.0938 12.375C15.0809 12.375 17.4688 14.8184 17.4688 17.875C17.4688 20.9316 15.0809 23.375 12.0938 23.375C9.10659 23.375 6.71875 20.9316 6.71875 17.875C6.71875 14.8184 9.10659 12.375 12.0938 12.375ZM30.9062 12.375C33.8934 12.375 36.2812 14.8184 36.2812 17.875C36.2812 20.9316 33.8934 23.375 30.9062 23.375C27.9191 23.375 25.5312 20.9316 25.5312 17.875C25.5312 14.8184 27.9191 12.375 30.9062 12.375Z" fill="black"/>
</svg>
