<svg width="27" height="27" viewBox="0 0 27 27" fill="none" xmlns="http://www.w3.org/2000/svg">
<path fill-rule="evenodd" clip-rule="evenodd" d="M13.5 27C6.04416 27 0 20.9558 0 13.5C0 6.04416 6.04416 0 13.5 0C20.9558 0 27 6.04416 27 13.5C27 20.9558 20.9558 27 13.5 27ZM13.5 24.5455C19.6002 24.5455 24.5455 19.6002 24.5455 13.5C24.5455 7.39976 19.6002 2.45455 13.5 2.45455C7.39976 2.45455 2.45455 7.39976 2.45455 13.5C2.45455 19.6002 7.39976 24.5455 13.5 24.5455ZM14.7273 12.2727H19.6364V14.7273H14.7273V19.6364H12.2727V14.7273H7.36364V12.2727H12.2727V7.36364H14.7273V12.2727Z" fill="white"/>
</svg>
