<svg width="13" height="12" viewBox="0 0 13 12" fill="none" xmlns="http://www.w3.org/2000/svg">
<path fill-rule="evenodd" clip-rule="evenodd" d="M7.15157 0.415026C7.78369 0.10283 8.3351 -8.51155e-07 9.19055 9.66652e-06C11.3797 0.00915731 13 1.8721 13 4.24515C13 6.05646 11.9991 7.80614 10.1348 9.49804C9.1562 10.3861 7.90676 11.265 7.01196 11.7325L6.5 12L5.98804 11.7325C5.09324 11.265 3.8438 10.3861 2.86522 9.49804C1.0009 7.80614 0 6.05646 0 4.24515C0 1.84671 1.60517 0 3.81405 0C4.6388 0 5.21851 0.112555 5.86289 0.434143C6.08724 0.546107 6.29802 0.678915 6.49407 0.832208C6.69798 0.669811 6.91754 0.530612 7.15157 0.415026ZM9.34447 8.61141C10.9827 7.12466 11.8182 5.66422 11.8182 4.24515C11.8182 2.49763 10.6885 1.19876 9.18809 1.19248C8.50141 1.19248 8.12256 1.26313 7.67114 1.48608C7.39346 1.62323 7.14711 1.80837 6.93222 2.04364L6.50138 2.51536L6.06659 2.04735C5.85643 1.82114 5.61364 1.64012 5.33894 1.50303C4.87389 1.27094 4.4698 1.19248 3.81405 1.19248C2.29488 1.19248 1.18182 2.47304 1.18182 4.24515C1.18182 5.66422 2.01726 7.12466 3.65553 8.61141C4.54871 9.42199 5.69698 10.232 6.5 10.657C7.30302 10.232 8.45129 9.42199 9.34447 8.61141Z" fill="black"/>
</svg>
