<svg width="22" height="18" viewBox="0 0 22 18" fill="none" xmlns="http://www.w3.org/2000/svg">
<path d="M4.95011 7.125H2.01678C2.07789 6.95 2.15825 6.78425 2.25786 6.62775C2.35686 6.47175 2.47511 6.31875 2.61261 6.16875L6.14178 2.30625C6.4015 2.01875 6.74923 1.828 7.18495 1.734C7.62006 1.6405 8.03623 1.68125 8.43345 1.85625L9.07511 2.11875C9.39595 2.25625 9.64436 2.44375 9.82036 2.68125C9.99575 2.91875 10.0834 3.18125 10.0834 3.46875V5.04375L11.7793 4.6875C12.2376 4.5875 12.6807 4.6345 13.1084 4.8285C13.5362 5.022 13.8265 5.3 13.9793 5.6625L15.4689 9.3375L19.3647 12.525C19.6703 12.775 19.8802 13.0438 19.9944 13.3313C20.1093 13.6188 20.1668 13.925 20.1668 14.25C20.1668 14.7125 20.014 15.125 19.7084 15.4875C19.4029 15.85 19.0057 16.1188 18.5168 16.2938L8.11261 8.15625C7.66956 7.81875 7.18067 7.5625 6.64595 7.3875C6.11123 7.2125 5.54595 7.125 4.95011 7.125ZM12.9709 16.5C12.5126 16.5 12.0772 16.4313 11.6647 16.2938C11.2522 16.1563 10.8703 15.9625 10.5189 15.7125L3.07095 10.1813C2.78067 9.96875 2.54386 9.728 2.36053 9.459C2.1772 9.1905 2.04734 8.9125 1.97095 8.625H4.95011C5.3015 8.625 5.64159 8.675 5.97036 8.775C6.29853 8.875 6.59248 9.03125 6.8522 9.24375L16.1105 16.5H12.9709Z" fill="#FFDE59"/>
</svg>
