<svg width="36" height="35" viewBox="0 0 36 35" fill="none" xmlns="http://www.w3.org/2000/svg">
<path d="M22.5 1.09375C22.5 3.13314 22.8867 5.01302 23.6602 6.7334C24.4336 8.45378 25.5469 10.0374 27 11.4844C28.4531 12.9313 29.5664 14.515 30.3398 16.2354C31.1133 17.9557 31.5 19.8356 31.5 21.875C31.5 23.0827 31.3418 24.2448 31.0254 25.3613C30.709 26.4779 30.252 27.5203 29.6543 28.4888C29.0566 29.4572 28.3535 30.3459 27.5449 31.1548C26.7363 31.9637 25.8281 32.6473 24.8203 33.2056C23.8125 33.7638 22.7344 34.2025 21.5859 34.5215C20.4375 34.8405 19.2422 35 18 35C16.7578 35 15.5625 34.8462 14.4141 34.5386C13.2656 34.231 12.1934 33.7866 11.1973 33.2056C10.2012 32.6245 9.28711 31.9409 8.45508 31.1548C7.62305 30.3687 6.91992 29.4857 6.3457 28.5059C5.77148 27.526 5.32031 26.4779 4.99219 25.3613C4.66406 24.2448 4.5 23.0827 4.5 21.875C4.5 20.918 4.60547 19.978 4.81641 19.0552C5.02734 18.1323 5.33203 17.2493 5.73047 16.4062C6.12891 15.5632 6.62109 14.7599 7.20703 13.9966C7.79297 13.2332 8.45508 12.5439 9.19336 11.9287C9.27539 12.3617 9.38672 12.806 9.52734 13.2617C9.66797 13.7174 9.83203 14.1732 10.0195 14.6289C10.207 15.0846 10.4297 15.5176 10.6875 15.9277C10.9453 16.3379 11.2148 16.7196 11.4961 17.0728C11.7305 17.3576 12.0352 17.5 12.4102 17.5C12.7266 17.5 12.9902 17.3918 13.2012 17.1753C13.4121 16.9588 13.5234 16.6968 13.5352 16.3892C13.5352 16.2638 13.5176 16.1499 13.4824 16.0474C13.4473 15.9448 13.3887 15.8423 13.3066 15.7397C12.9785 15.2726 12.6914 14.8112 12.4453 14.3555C12.1992 13.8997 11.9824 13.4326 11.7949 12.9541C11.6074 12.4756 11.4727 11.98 11.3906 11.4673C11.3086 10.9546 11.2617 10.4134 11.25 9.84375C11.25 8.48796 11.5137 7.21191 12.041 6.01562C12.5684 4.81934 13.2949 3.77686 14.2207 2.88818C15.1465 1.99951 16.2188 1.29883 17.4375 0.786133C18.6562 0.273438 19.9688 0.0113932 21.375 0H22.5V1.09375ZM18 32.8125C19.5586 32.8125 21.0176 32.5277 22.377 31.958C23.7363 31.3883 24.9316 30.6079 25.9629 29.6167C26.9941 28.6255 27.7969 27.4691 28.3711 26.1475C28.9453 24.8258 29.2383 23.4017 29.25 21.875C29.25 20.1546 28.9219 18.5539 28.2656 17.0728C27.6094 15.5916 26.6602 14.2472 25.418 13.0396C23.8945 11.547 22.6992 9.90072 21.832 8.10059C20.9648 6.30046 20.4492 4.35221 20.2852 2.25586C19.3125 2.38118 18.416 2.66602 17.5957 3.11035C16.7754 3.55469 16.0547 4.11865 15.4336 4.80225C14.8125 5.48584 14.3379 6.25488 14.0098 7.10938C13.6816 7.96387 13.5117 8.87533 13.5 9.84375C13.5 10.7324 13.6348 11.5356 13.9043 12.2534C14.1738 12.9712 14.5723 13.689 15.0996 14.4067C15.3223 14.703 15.4922 15.0106 15.6094 15.3296C15.7266 15.6486 15.791 16.0018 15.8027 16.3892C15.8027 16.8449 15.7148 17.2721 15.5391 17.6709C15.3633 18.0697 15.1172 18.4172 14.8008 18.7134C14.4844 19.0096 14.127 19.2489 13.7285 19.4312C13.3301 19.6134 12.8906 19.6989 12.4102 19.6875C11.8711 19.6875 11.3965 19.5907 10.9863 19.397C10.5762 19.2033 10.2129 18.9412 9.89648 18.6108C9.58008 18.2804 9.29883 17.9102 9.05273 17.5C8.80664 17.0898 8.57227 16.6797 8.34961 16.2695C7.81055 17.1012 7.41211 17.9956 7.1543 18.9526C6.89648 19.9097 6.76172 20.8838 6.75 21.875C6.75 23.3903 7.04297 24.8088 7.62891 26.1304C8.21484 27.452 9.01758 28.6141 10.0371 29.6167C11.0566 30.6193 12.2461 31.3997 13.6055 31.958C14.9648 32.5163 16.4297 32.8011 18 32.8125Z" fill="#FF914D"/>
<g clip-path="url(#clip0_1_661)">
<path d="M22.6391 13.4072C22.6391 14.5475 22.8623 15.5987 23.3088 16.5606C23.7554 17.5225 24.3981 18.408 25.237 19.2171C26.0759 20.0261 26.7186 20.9116 27.1652 21.8735C27.6117 22.8354 27.8349 23.8866 27.8349 25.0269C27.8349 25.7021 27.7436 26.3519 27.5609 26.9762C27.3783 27.6005 27.1144 28.1834 26.7694 28.7249C26.4243 29.2664 26.0184 29.7633 25.5516 30.2156C25.0848 30.6679 24.5605 31.0501 23.9786 31.3622C23.3968 31.6744 22.7744 31.9196 22.1114 32.098C21.4483 32.2764 20.7583 32.3656 20.0411 32.3656C19.324 32.3656 18.6339 32.2796 17.9709 32.1076C17.3079 31.9356 16.6888 31.6871 16.1138 31.3622C15.5387 31.0373 15.011 30.6551 14.5307 30.2156C14.0503 29.776 13.6444 29.2823 13.3129 28.7344C12.9814 28.1866 12.7209 27.6005 12.5315 26.9762C12.342 26.3519 12.2473 25.7021 12.2473 25.0269C12.2473 24.4918 12.3082 23.9662 12.43 23.4502C12.5518 22.9342 12.7277 22.4405 12.9577 21.9691C13.1877 21.4977 13.4719 21.0485 13.8101 20.6217C14.1484 20.1949 14.5307 19.8095 14.9569 19.4655C15.0042 19.7076 15.0685 19.956 15.1497 20.2108C15.2309 20.4657 15.3256 20.7205 15.4338 20.9753C15.5421 21.2301 15.6706 21.4722 15.8195 21.7015C15.9683 21.9309 16.1239 22.1443 16.2863 22.3417C16.4216 22.501 16.5975 22.5806 16.814 22.5806C16.9967 22.5806 17.1489 22.5201 17.2707 22.3991C17.3924 22.278 17.4567 22.1315 17.4635 21.9595C17.4635 21.8894 17.4533 21.8257 17.433 21.7684C17.4127 21.7111 17.3789 21.6537 17.3316 21.5964C17.1421 21.3352 16.9764 21.0772 16.8343 20.8224C16.6922 20.5676 16.5671 20.3064 16.4588 20.0388C16.3506 19.7713 16.2728 19.4942 16.2254 19.2075C16.178 18.9208 16.151 18.6182 16.1442 18.2997C16.1442 17.5416 16.2964 16.8282 16.6009 16.1593C16.9053 15.4904 17.3248 14.9075 17.8593 14.4106C18.3937 13.9137 19.0128 13.5219 19.7164 13.2352C20.42 12.9486 21.1777 12.8021 21.9896 12.7957H22.6391V13.4072ZM20.0411 31.1425C20.9409 31.1425 21.7832 30.9832 22.568 30.6647C23.3528 30.3462 24.0429 29.9098 24.6383 29.3556C25.2336 28.8013 25.6971 28.1547 26.0286 27.4158C26.3601 26.6768 26.5292 25.8805 26.536 25.0269C26.536 24.0649 26.3465 23.1699 25.9677 22.3417C25.5888 21.5136 25.0408 20.7619 24.3237 20.0866C23.4442 19.2521 22.7541 18.3316 22.2534 17.325C21.7528 16.3185 21.4551 15.2292 21.3604 14.057C20.7989 14.1271 20.2813 14.2864 19.8077 14.5348C19.3341 14.7833 18.9181 15.0986 18.5595 15.4808C18.2009 15.863 17.9269 16.293 17.7375 16.7708C17.5481 17.2486 17.45 17.7582 17.4432 18.2997C17.4432 18.7966 17.521 19.2457 17.6766 19.6471C17.8322 20.0484 18.0622 20.4497 18.3667 20.8511C18.4952 21.0167 18.5933 21.1887 18.661 21.3671C18.7286 21.5454 18.7658 21.7429 18.7726 21.9595C18.7726 22.2143 18.7219 22.4532 18.6204 22.6762C18.5189 22.8992 18.3768 23.0934 18.1942 23.2591C18.0115 23.4247 17.8051 23.5585 17.5751 23.6604C17.3451 23.7623 17.0914 23.8101 16.814 23.8037C16.5028 23.8037 16.2288 23.7496 15.992 23.6413C15.7552 23.533 15.5455 23.3865 15.3628 23.2017C15.1801 23.017 15.0178 22.81 14.8757 22.5806C14.7336 22.3513 14.5983 22.122 14.4698 21.8926C14.1586 22.3577 13.9285 22.8577 13.7797 23.3929C13.6309 23.928 13.553 24.4726 13.5463 25.0269C13.5463 25.8741 13.7154 26.6672 14.0537 27.4062C14.392 28.1452 14.8554 28.795 15.444 29.3556C16.0326 29.9162 16.7193 30.3525 17.5041 30.6647C18.2889 30.9768 19.1346 31.1361 20.0411 31.1425Z" fill="#FF914D"/>
</g>
<defs>
<clipPath id="clip0_1_661">
<rect width="20.7835" height="19.5699" fill="white" transform="translate(9.64941 12.7957)"/>
</clipPath>
</defs>
</svg>
