<svg width="36" height="35" viewBox="0 0 36 35" fill="none" xmlns="http://www.w3.org/2000/svg">
<path d="M8.1001 13.8542H3.3001C3.4001 13.5139 3.5316 13.1916 3.6946 12.8873C3.8566 12.584 4.0501 12.2865 4.2751 11.9948L10.0501 4.48438C10.4751 3.92535 11.0441 3.55445 11.7571 3.37167C12.4691 3.18986 13.1501 3.2691 13.8001 3.60938L14.8501 4.11979C15.3751 4.38715 15.7816 4.75174 16.0696 5.21354C16.3566 5.67535 16.5001 6.18577 16.5001 6.74479V9.80729L19.2751 9.11458C20.0251 8.92014 20.7501 9.01153 21.4501 9.38875C22.1501 9.765 22.6251 10.3056 22.8751 11.0104L25.3126 18.1563L31.6876 24.3542C32.1876 24.8403 32.5311 25.3629 32.7181 25.9219C32.9061 26.4809 33.0001 27.0764 33.0001 27.7083C33.0001 28.6076 32.7501 29.4097 32.2501 30.1146C31.7501 30.8194 31.1001 31.342 30.3001 31.6823L13.2751 15.8594C12.5501 15.2031 11.7501 14.7049 10.8751 14.3646C10.0001 14.0243 9.0751 13.8542 8.1001 13.8542ZM21.2251 32.0833C20.4751 32.0833 19.7626 31.9497 19.0876 31.6823C18.4126 31.4149 17.7876 31.0382 17.2126 30.5521L5.0251 19.7969C4.5501 19.3837 4.1626 18.9156 3.8626 18.3925C3.5626 17.8704 3.3501 17.3299 3.2251 16.7708H8.1001C8.6751 16.7708 9.2316 16.8681 9.7696 17.0625C10.3066 17.2569 10.7876 17.5608 11.2126 17.974L26.3626 32.0833H21.2251Z" fill="#FF914D"/>
</svg>
