<svg width="15" height="15" viewBox="0 0 15 15" fill="none" xmlns="http://www.w3.org/2000/svg">
<path fill-rule="evenodd" clip-rule="evenodd" d="M13.55 12.0544L12.0383 13.5662L10.1034 13.0271L9.55005 13.2554L8.55671 14.9993H6.4195L5.43166 13.2494L4.87887 13.0176L2.94415 13.55L1.43316 12.039L1.97217 10.1041L1.74391 9.55062L0 8.55656V6.41942L1.75062 5.4316L1.98237 4.87887L1.45002 2.94415L2.96044 1.43373L4.89535 1.9735L5.44822 1.74548L6.44007 0H8.57783L9.56565 1.75062L10.1184 1.98237L12.0528 1.45011L13.5656 2.9607L13.0264 4.89591L13.2545 5.44891L15 6.44076V8.57852L13.2495 9.56624L13.0176 10.1202L13.55 12.0544ZM11.5779 10.028L12.1723 8.60837L13.6364 7.78223V7.2343L12.1728 6.40265L11.5869 4.98202L12.0381 3.36249L11.6502 2.9752L10.0257 3.42218L8.60759 2.82757L7.78154 1.36364H7.23362L6.40196 2.82719L4.9812 3.41315L3.36137 2.96128L2.97529 3.34736L3.42218 4.97151L2.82757 6.38966L1.36364 7.21571V7.76424L2.82601 8.59782L3.41172 10.018L2.96047 11.6378L3.34736 12.0247L4.97151 11.5778L6.38959 12.1724L7.21562 13.6357H7.76409L8.59702 12.1733L10.0173 11.5876L11.6371 12.0388L12.0247 11.6513L11.5779 10.028ZM7.5 10.2273C5.99377 10.2273 4.77273 9.00623 4.77273 7.5C4.77273 5.99377 5.99377 4.77273 7.5 4.77273C9.00623 4.77273 10.2273 5.99377 10.2273 7.5C10.2273 9.00623 9.00623 10.2273 7.5 10.2273ZM7.5 8.86364C8.25312 8.86364 8.86364 8.25312 8.86364 7.5C8.86364 6.74688 8.25312 6.13636 7.5 6.13636C6.74688 6.13636 6.13636 6.74688 6.13636 7.5C6.13636 8.25312 6.74688 8.86364 7.5 8.86364Z" fill="black"/>
</svg>
