<svg width="24" height="21" viewBox="0 0 24 21" fill="none" xmlns="http://www.w3.org/2000/svg">
<path d="M15 0.65625C15 1.87988 15.2578 3.00781 15.7734 4.04004C16.2891 5.07227 17.0312 6.02246 18 6.89062C18.9688 7.75879 19.7109 8.70898 20.2266 9.74121C20.7422 10.7734 21 11.9014 21 13.125C21 13.8496 20.8945 14.5469 20.6836 15.2168C20.4727 15.8867 20.168 16.5122 19.7695 17.0933C19.3711 17.6743 18.9023 18.2075 18.3633 18.6929C17.8242 19.1782 17.2188 19.5884 16.5469 19.9233C15.875 20.2583 15.1562 20.5215 14.3906 20.7129C13.625 20.9043 12.8281 21 12 21C11.1719 21 10.375 20.9077 9.60938 20.7231C8.84375 20.5386 8.12891 20.272 7.46484 19.9233C6.80078 19.5747 6.19141 19.1646 5.63672 18.6929C5.08203 18.2212 4.61328 17.6914 4.23047 17.1035C3.84766 16.5156 3.54688 15.8867 3.32812 15.2168C3.10938 14.5469 3 13.8496 3 13.125C3 12.5508 3.07031 11.9868 3.21094 11.4331C3.35156 10.8794 3.55469 10.3496 3.82031 9.84375C4.08594 9.33789 4.41406 8.85596 4.80469 8.39795C5.19531 7.93994 5.63672 7.52637 6.12891 7.15723C6.18359 7.41699 6.25781 7.68359 6.35156 7.95703C6.44531 8.23047 6.55469 8.50391 6.67969 8.77734C6.80469 9.05078 6.95312 9.31055 7.125 9.55664C7.29688 9.80273 7.47656 10.0317 7.66406 10.2437C7.82031 10.4146 8.02344 10.5 8.27344 10.5C8.48438 10.5 8.66016 10.4351 8.80078 10.3052C8.94141 10.1753 9.01562 10.0181 9.02344 9.8335C9.02344 9.7583 9.01172 9.68994 8.98828 9.62842C8.96484 9.56689 8.92578 9.50537 8.87109 9.44385C8.65234 9.16357 8.46094 8.88672 8.29688 8.61328C8.13281 8.33984 7.98828 8.05957 7.86328 7.77246C7.73828 7.48535 7.64844 7.18799 7.59375 6.88037C7.53906 6.57275 7.50781 6.24805 7.5 5.90625C7.5 5.09277 7.67578 4.32715 8.02734 3.60938C8.37891 2.8916 8.86328 2.26611 9.48047 1.73291C10.0977 1.19971 10.8125 0.779297 11.625 0.47168C12.4375 0.164062 13.3125 0.00683594 14.25 0H15V0.65625ZM12 19.6875C13.0391 19.6875 14.0117 19.5166 14.918 19.1748C15.8242 18.833 16.6211 18.3647 17.3086 17.77C17.9961 17.1753 18.5312 16.4814 18.9141 15.6885C19.2969 14.8955 19.4922 14.041 19.5 13.125C19.5 12.0928 19.2812 11.1323 18.8438 10.2437C18.4062 9.35498 17.7734 8.54834 16.9453 7.82373C15.9297 6.92822 15.1328 5.94043 14.5547 4.86035C13.9766 3.78027 13.6328 2.61133 13.5234 1.35352C12.875 1.42871 12.2773 1.59961 11.7305 1.86621C11.1836 2.13281 10.7031 2.47119 10.2891 2.88135C9.875 3.2915 9.55859 3.75293 9.33984 4.26562C9.12109 4.77832 9.00781 5.3252 9 5.90625C9 6.43945 9.08984 6.92139 9.26953 7.35205C9.44922 7.78271 9.71484 8.21338 10.0664 8.64404C10.2148 8.82178 10.3281 9.00635 10.4062 9.19775C10.4844 9.38916 10.5273 9.60107 10.5352 9.8335C10.5352 10.1069 10.4766 10.3633 10.3594 10.6025C10.2422 10.8418 10.0781 11.0503 9.86719 11.228C9.65625 11.4058 9.41797 11.5493 9.15234 11.6587C8.88672 11.7681 8.59375 11.8193 8.27344 11.8125C7.91406 11.8125 7.59766 11.7544 7.32422 11.6382C7.05078 11.522 6.80859 11.3647 6.59766 11.1665C6.38672 10.9683 6.19922 10.7461 6.03516 10.5C5.87109 10.2539 5.71484 10.0078 5.56641 9.76172C5.20703 10.2607 4.94141 10.7974 4.76953 11.3716C4.59766 11.9458 4.50781 12.5303 4.5 13.125C4.5 14.0342 4.69531 14.8853 5.08594 15.6782C5.47656 16.4712 6.01172 17.1685 6.69141 17.77C7.37109 18.3716 8.16406 18.8398 9.07031 19.1748C9.97656 19.5098 10.9531 19.6807 12 19.6875Z" fill="#F8442C"/>
<g clip-path="url(#clip0_1_190)">
<path d="M15.0928 8.04435C15.0928 8.72853 15.2416 9.3592 15.5393 9.93636C15.837 10.5135 16.2654 11.0448 16.8247 11.5302C17.384 12.0157 17.8125 12.547 18.1102 13.1241C18.4078 13.7013 18.5567 14.3319 18.5567 15.0161C18.5567 15.4213 18.4958 15.8112 18.374 16.1857C18.2522 16.5603 18.0763 16.91 17.8463 17.2349C17.6163 17.5598 17.3457 17.858 17.0344 18.1293C16.7232 18.4007 16.3737 18.6301 15.9858 18.8173C15.5979 19.0046 15.183 19.1518 14.7409 19.2588C14.2989 19.3658 13.8389 19.4194 13.3608 19.4194C12.8827 19.4194 12.4226 19.3678 11.9806 19.2645C11.5386 19.1613 11.1259 19.0123 10.7426 18.8173C10.3592 18.6224 10.0074 18.3931 9.68715 18.1293C9.36691 17.8656 9.0963 17.5694 8.87529 17.2407C8.65429 16.912 8.48064 16.5603 8.35435 16.1857C8.22806 15.8112 8.16492 15.4213 8.16492 15.0161C8.16492 14.6951 8.20551 14.3797 8.2867 14.0701C8.36788 13.7605 8.48515 13.4643 8.6385 13.1814C8.79185 12.8986 8.98128 12.6291 9.2068 12.373C9.43231 12.117 9.68715 11.8857 9.9713 11.6793C10.0029 11.8245 10.0457 11.9736 10.0998 12.1265C10.154 12.2794 10.2171 12.4323 10.2893 12.5852C10.3614 12.7381 10.4471 12.8833 10.5464 13.0209C10.6456 13.1585 10.7493 13.2866 10.8576 13.405C10.9478 13.5006 11.065 13.5484 11.2094 13.5484C11.3312 13.5484 11.4326 13.5121 11.5138 13.4394C11.595 13.3668 11.6379 13.2789 11.6424 13.1757C11.6424 13.1337 11.6356 13.0954 11.6221 13.061C11.6085 13.0266 11.586 12.9922 11.5544 12.9578C11.4281 12.8011 11.3176 12.6463 11.2229 12.4934C11.1282 12.3406 11.0447 12.1838 10.9726 12.0233C10.9004 11.8628 10.8486 11.6965 10.817 11.5245C10.7854 11.3525 10.7674 11.1709 10.7629 10.9798C10.7629 10.525 10.8643 10.0969 11.0673 9.69556C11.2703 9.29422 11.5499 8.94449 11.9062 8.64635C12.2625 8.34822 12.6752 8.11315 13.1443 7.94115C13.6134 7.76915 14.1185 7.68124 14.6598 7.67741H15.0928V8.04435ZM13.3608 18.6855C13.9607 18.6855 14.5222 18.5899 15.0454 18.3988C15.5686 18.2077 16.0286 17.9459 16.4255 17.6133C16.8225 17.2808 17.1314 16.8928 17.3524 16.4495C17.5734 16.0061 17.6862 15.5283 17.6907 15.0161C17.6907 14.439 17.5644 13.9019 17.3118 13.405C17.0592 12.9082 16.6939 12.4571 16.2158 12.052C15.6295 11.5513 15.1694 10.9989 14.8357 10.395C14.5019 9.79112 14.3034 9.13751 14.2403 8.43422C13.8659 8.47626 13.5209 8.57182 13.2052 8.72089C12.8895 8.86995 12.6121 9.05916 12.373 9.28849C12.134 9.51782 11.9513 9.77583 11.825 10.0625C11.6987 10.3492 11.6333 10.6549 11.6288 10.9798C11.6288 11.278 11.6807 11.5474 11.7844 11.7882C11.8882 12.029 12.0415 12.2698 12.2445 12.5106C12.3302 12.61 12.3956 12.7132 12.4407 12.8202C12.4858 12.9273 12.5106 13.0458 12.5151 13.1757C12.5151 13.3286 12.4813 13.4719 12.4136 13.6057C12.346 13.7395 12.2513 13.8561 12.1295 13.9555C12.0077 14.0548 11.8701 14.1351 11.7168 14.1963C11.5634 14.2574 11.3943 14.2861 11.2094 14.2823C11.0019 14.2823 10.8192 14.2498 10.6614 14.1848C10.5035 14.1198 10.3637 14.0319 10.2419 13.9211C10.1201 13.8102 10.0119 13.686 9.91717 13.5484C9.82246 13.4108 9.73225 13.2732 9.64655 13.1356C9.43908 13.4146 9.28573 13.7147 9.1865 14.0357C9.08728 14.3568 9.03541 14.6836 9.0309 15.0161C9.0309 15.5245 9.14365 16.0004 9.36917 16.4437C9.59469 16.8871 9.90364 17.277 10.296 17.6133C10.6884 17.9497 11.1462 18.2115 11.6694 18.3988C12.1926 18.5861 12.7564 18.6817 13.3608 18.6855Z" fill="#F8442C"/>
</g>
<defs>
<clipPath id="clip0_1_190">
<rect width="13.8557" height="11.7419" fill="white" transform="translate(6.43298 7.67741)"/>
</clipPath>
</defs>
</svg>
