<svg width="62" height="62" viewBox="0 0 62 62" fill="none" xmlns="http://www.w3.org/2000/svg">
<g filter="url(#filter0_d_1_63)">
<path d="M4 12C4 5.37258 9.37258 0 16 0H46C52.6274 0 58 5.37258 58 12V42C58 48.6274 52.6274 54 46 54H16C9.37258 54 4 48.6274 4 42V12Z" fill="#FFDE59"/>
<path d="M4 12C4 5.37258 9.37258 0 16 0H46C52.6274 0 58 5.37258 58 12V42C58 48.6274 52.6274 54 46 54H16C9.37258 54 4 48.6274 4 42V12Z" fill="#FFDE59"/>
</g>
<defs>
<filter id="filter0_d_1_63" x="0" y="0" width="62" height="62" filterUnits="userSpaceOnUse" color-interpolation-filters="sRGB">
<feFlood flood-opacity="0" result="BackgroundImageFix"/>
<feColorMatrix in="SourceAlpha" type="matrix" values="0 0 0 0 0 0 0 0 0 0 0 0 0 0 0 0 0 0 127 0" result="hardAlpha"/>
<feOffset dy="4"/>
<feGaussianBlur stdDeviation="2"/>
<feComposite in2="hardAlpha" operator="out"/>
<feColorMatrix type="matrix" values="0 0 0 0 0 0 0 0 0 0 0 0 0 0 0 0 0 0 0.25 0"/>
<feBlend mode="normal" in2="BackgroundImageFix" result="effect1_dropShadow_1_63"/>
<feBlend mode="normal" in="SourceGraphic" in2="effect1_dropShadow_1_63" result="shape"/>
</filter>
</defs>
</svg>
