<svg width="35" height="35" viewBox="0 0 35 35" fill="none" xmlns="http://www.w3.org/2000/svg">
<path d="M14.5834 4.37499C14.1702 4.37499 13.8241 4.23499 13.5451 3.95499C13.2651 3.67597 13.1251 3.32986 13.1251 2.91666C13.1251 2.50347 13.2651 2.15687 13.5451 1.87687C13.8241 1.59784 14.1702 1.45833 14.5834 1.45833H20.4167C20.8299 1.45833 21.1765 1.59784 21.4565 1.87687C21.7356 2.15687 21.8751 2.50347 21.8751 2.91666C21.8751 3.32986 21.7356 3.67597 21.4565 3.95499C21.1765 4.23499 20.8299 4.37499 20.4167 4.37499H14.5834ZM14.5834 21.5104L12.9792 18.3021C12.8577 18.0347 12.6754 17.834 12.4324 17.6998C12.1893 17.5666 11.9341 17.5 11.6667 17.5H4.448C4.81258 14.2187 6.23446 11.4537 8.71362 9.20499C11.1928 6.95722 14.1216 5.83333 17.5001 5.83333C19.007 5.83333 20.4532 6.07638 21.8386 6.5625C23.224 7.04861 24.5244 7.75347 25.7397 8.67708L26.7605 7.65625C27.0279 7.38888 27.3681 7.24888 27.7813 7.23624C28.1945 7.22458 28.5348 7.36458 28.8022 7.65625C29.0695 7.92361 29.2032 8.26388 29.2032 8.67708C29.2032 9.09027 29.0695 9.43055 28.8022 9.69791L27.7813 10.7187C28.5591 11.7396 29.1789 12.8149 29.6407 13.9446C30.1025 15.0753 30.4063 16.2604 30.5522 17.5H24.2449L21.7292 12.4687C21.4619 11.9097 21.0244 11.6302 20.4167 11.6302C19.8091 11.6302 19.3716 11.9097 19.1042 12.4687L14.5834 21.5104ZM17.5001 32.0833C14.1216 32.0833 11.1928 30.9594 8.71362 28.7117C6.23446 26.4629 4.81258 23.6979 4.448 20.4167H10.7553L13.2709 25.4479C13.5383 26.0069 13.9758 26.2865 14.5834 26.2865C15.1911 26.2865 15.6286 26.0069 15.8959 25.4479L20.4167 16.4062L22.0209 19.6146C22.1424 19.8819 22.3247 20.0827 22.5678 20.2169C22.8108 20.3501 23.0661 20.4167 23.3334 20.4167H30.5522C30.1876 23.6979 28.772 26.4629 26.3055 28.7117C23.838 30.9594 20.9029 32.0833 17.5001 32.0833Z" fill="#FF914D"/>
</svg>
