<svg width="25" height="25" viewBox="0 0 25 25" fill="none" xmlns="http://www.w3.org/2000/svg">
<path d="M11.1583 6.9867L15.9325 11.7783C16.0363 11.8825 16.1096 11.9953 16.1524 12.1167C16.1958 12.2381 16.2174 12.3681 16.2171 12.5067C16.2169 12.6453 16.1948 12.7753 16.1509 12.8965C16.1077 13.0177 16.0341 13.1302 15.9299 13.234L11.1382 18.0083C10.9473 18.1986 10.7045 18.2934 10.4099 18.2929C10.1153 18.2924 9.87284 18.1966 9.68256 18.0056C9.49228 17.8147 9.39741 17.5719 9.39794 17.2773C9.39848 16.9827 9.49423 16.7402 9.68521 16.55L13.7477 12.5022L9.69996 8.43973C9.50968 8.24876 9.41481 8.00598 9.41534 7.71137C9.41588 7.41677 9.51163 7.17433 9.7026 6.98405C9.89357 6.79378 10.1364 6.6989 10.431 6.69944C10.7256 6.69998 10.968 6.79573 11.1583 6.9867Z" fill="#E4A951"/>
</svg>
