<svg width="12" height="12" viewBox="0 0 12 12" fill="none" xmlns="http://www.w3.org/2000/svg">
<path fill-rule="evenodd" clip-rule="evenodd" d="M6 12C2.68629 12 0 9.31371 0 6C0 2.68629 2.68629 0 6 0C9.31371 0 12 2.68629 12 6C12 9.31371 9.31371 12 6 12ZM6 10.9091C8.71122 10.9091 10.9091 8.71122 10.9091 6C10.9091 3.28878 8.71122 1.09091 6 1.09091C3.28878 1.09091 1.09091 3.28878 1.09091 6C1.09091 8.71122 3.28878 10.9091 6 10.9091ZM4.90909 6.86497L7.79612 3.97794L8.56751 4.74933L4.90909 8.40775L2.88703 6.38569L3.65842 5.61431L4.90909 6.86497Z" fill="#6EFD73"/>
</svg>
