<svg width="32" height="40" viewBox="0 0 32 40" fill="none" xmlns="http://www.w3.org/2000/svg">
<path fill-rule="evenodd" clip-rule="evenodd" d="M16 39.1111C6.68574 39.1111 0 31.8177 0 23.1115C0 19.5295 1.12419 15.7753 3.70808 9.94623C6.38223 3.91353 10.2599 0 15.1111 0H16.8889C21.6929 0 24.7708 3.13798 28.2454 9.84932C30.6833 14.5582 32 19.2003 32 23.1115C32 31.8177 25.3143 39.1111 16 39.1111ZM16 35.5556C23.2782 35.5556 28.4444 29.9198 28.4444 23.1115C28.4444 19.8211 27.2815 15.7209 25.0879 11.484C22.1778 5.86293 19.9146 3.55556 16.8889 3.55556H15.1111C12.0438 3.55556 9.12376 6.50264 6.95859 11.3871C4.56113 16.7956 3.55556 20.1537 3.55556 23.1115C3.55556 29.9198 8.7218 35.5556 16 35.5556ZM16 29.7778C12.0726 29.7778 8.88889 26.594 8.88889 22.6667C8.88889 18.58 12.128 14.2222 16 14.2222C19.872 14.2222 23.1111 18.58 23.1111 22.6667C23.1111 26.594 19.9274 29.7778 16 29.7778ZM16 26.2222C17.9637 26.2222 19.5556 24.6303 19.5556 22.6667C19.5556 20.3536 17.641 17.7778 16 17.7778C14.359 17.7778 12.4444 20.3536 12.4444 22.6667C12.4444 24.6303 14.0363 26.2222 16 26.2222Z" fill="#9DD184"/>
</svg>
