<svg width="35" height="26" viewBox="0 0 35 26" fill="none" xmlns="http://www.w3.org/2000/svg">
<path d="M28.2421 6.2758C28.0792 6.2758 27.9229 6.20496 27.8077 6.07886C27.6925 5.95276 27.6277 5.78172 27.6277 5.60339C27.6277 5.42505 27.6925 5.25402 27.8077 5.12792C27.9229 5.00182 28.0792 4.93098 28.2421 4.93098C28.405 4.93098 28.5613 5.00182 28.6765 5.12792C28.7917 5.25402 28.8565 5.42505 28.8565 5.60339C28.8565 5.78172 28.7917 5.95276 28.6765 6.07886C28.5613 6.20496 28.405 6.2758 28.2421 6.2758ZM34.7584 8.32891L31.0723 4.29442C30.9248 4.13304 30.72 4.03442 30.4948 4.03442H27.6277C27.1731 4.03442 26.8086 4.43339 26.8086 4.93098V8.06891C26.8086 8.31546 26.8987 8.5396 27.0502 8.70098L30.7323 12.7355C30.8839 12.8968 31.0886 12.9999 31.3139 12.9999C31.5392 12.9999 31.744 12.8968 31.8914 12.7355L34.7584 9.59753C34.91 9.43615 35.0001 9.21201 35.0001 8.96546C35.0001 8.71442 34.9059 8.49029 34.7584 8.32891Z" fill="black"/>
<path fill-rule="evenodd" clip-rule="evenodd" d="M20.4785 14.7932C22.2514 16.3103 23.4937 18.3657 23.4937 21.1063V26.0001H28.67V21.1063C28.67 17.5501 24.0502 15.4457 20.4785 14.7932Z" fill="black"/>
<path d="M10.4257 13C13.3046 13 15.6384 10.0899 15.6384 6.5C15.6384 2.91015 13.3046 0 10.4257 0C7.54673 0 5.21289 2.91015 5.21289 6.5C5.21289 10.0899 7.54673 13 10.4257 13Z" fill="black"/>
<path fill-rule="evenodd" clip-rule="evenodd" d="M18.2447 13C21.1247 13 23.4574 10.0913 23.4574 6.5C23.4574 2.90875 21.1247 0 18.2447 0C17.6322 0 17.0588 0.1625 16.5114 0.39C17.6329 2.11935 18.2446 4.27603 18.2446 6.5C18.2446 8.72397 17.6329 10.8806 16.5114 12.61C17.0588 12.8375 17.6322 13 18.2447 13ZM10.4255 14.625C6.94601 14.625 0 16.8025 0 21.125V26H20.8511V21.125C20.8511 16.8025 13.9051 14.625 10.4255 14.625Z" fill="black"/>
</svg>
