<svg width="38" height="45" viewBox="0 0 38 45" fill="none" xmlns="http://www.w3.org/2000/svg">
<path d="M27.8667 33.75H27.6094C27.3059 32.1094 26.7715 30.6006 26.0063 29.2236C25.241 27.8467 24.3108 26.6602 23.2156 25.6641C22.1205 24.668 20.8868 23.8916 19.5146 23.335C18.1424 22.7783 16.7042 22.5 15.2 22.5C14.0389 22.5 12.9174 22.6685 11.8354 23.0054C10.7535 23.3423 9.7441 23.811 8.80729 24.4116C7.87049 25.0122 7.01944 25.7446 6.25417 26.6089C5.48889 27.4731 4.82917 28.4253 4.275 29.4653C3.72083 30.5054 3.29201 31.626 2.98854 32.8271C2.68507 34.0283 2.53333 35.2734 2.53333 36.5625H0C0 34.8047 0.230903 33.1128 0.692708 31.4868C1.15451 29.8608 1.82083 28.3594 2.69167 26.9824C3.5625 25.6055 4.59167 24.3823 5.77917 23.313C6.96667 22.2437 8.3125 21.4014 9.81667 20.7861C8.3257 19.7021 7.16458 18.3398 6.33333 16.6992C5.50208 15.0586 5.07986 13.2422 5.06667 11.25C5.06667 9.69727 5.33056 8.23975 5.85833 6.87744C6.38611 5.51514 7.10521 4.32129 8.01562 3.2959C8.92604 2.27051 10.0014 1.46484 11.2417 0.878906C12.4819 0.292969 13.8014 0 15.2 0C16.5986 0 17.9115 0.292969 19.1385 0.878906C20.3656 1.46484 21.441 2.26318 22.3646 3.27393C23.2882 4.28467 24.0139 5.47852 24.5417 6.85547C25.0694 8.23242 25.3333 9.69727 25.3333 11.25C25.3333 12.2168 25.2278 13.1616 25.0167 14.0845C24.8056 15.0073 24.4889 15.8789 24.0667 16.6992C23.6444 17.5195 23.1497 18.2739 22.5823 18.9624C22.0149 19.6509 21.3486 20.2588 20.5833 20.7861C22.0611 21.416 23.4201 22.2803 24.6604 23.3789C25.9007 24.4775 26.9694 25.7666 27.8667 27.2461V33.75ZM7.6 11.25C7.6 12.4219 7.79792 13.5132 8.19375 14.5239C8.58958 15.5347 9.13056 16.4282 9.81667 17.2046C10.5028 17.981 11.3076 18.5889 12.2312 19.0283C13.1549 19.4678 14.1444 19.6875 15.2 19.6875C16.2424 19.6875 17.2253 19.4678 18.149 19.0283C19.0726 18.5889 19.8774 17.9883 20.5635 17.2266C21.2497 16.4648 21.7972 15.5713 22.2063 14.5459C22.6153 13.5205 22.8132 12.4219 22.8 11.25C22.8 10.0928 22.6021 9.00147 22.2063 7.97607C21.8104 6.95068 21.2694 6.05713 20.5833 5.29541C19.8972 4.53369 19.0858 3.92578 18.149 3.47168C17.2122 3.01758 16.2292 2.79785 15.2 2.8125C14.1444 2.8125 13.1615 3.03223 12.251 3.47168C11.3406 3.91113 10.5358 4.51172 9.83646 5.27344C9.13715 6.03516 8.58958 6.93604 8.19375 7.97607C7.79792 9.01611 7.6 10.1074 7.6 11.25ZM32.9333 36.5625H38V39.375H32.9333V45H30.4V39.375H25.3333V36.5625H30.4V30.9375H32.9333V36.5625Z" fill="#37645A"/>
</svg>
