<svg width="25" height="25" viewBox="0 0 25 25" fill="none" xmlns="http://www.w3.org/2000/svg">
<path fill-rule="evenodd" clip-rule="evenodd" d="M16.003 5.55657L8.37011 13.187C7.86367 13.6349 7.55037 14.2615 7.49998 14.8347V17.5036L10.08 17.506C10.7477 17.4587 11.3693 17.1479 11.8685 16.577L19.4458 8.99963L16.003 5.55657ZM17.771 3.7891L21.2136 7.23187L22.3309 6.11451C22.4392 6.00626 22.5 5.85943 22.5 5.70633C22.5 5.55324 22.4392 5.40641 22.3309 5.29816L19.7014 2.66856C19.5943 2.56068 19.4486 2.49999 19.2966 2.49999C19.1447 2.49999 18.999 2.56068 18.8919 2.66856L17.771 3.7891ZM24.9999 13.75V22.4999C24.9999 23.8806 23.8806 24.9999 22.4999 24.9999H2.49999C1.11929 24.9999 0 23.8806 0 22.4999V2.49999C0 1.11929 1.11929 0 2.49999 0H11.25V2.49999H2.49999V22.4999H22.4999V13.75H24.9999ZM19.2966 0C20.1151 0 20.8996 0.326774 21.4726 0.904276L24.0987 3.53039C24.6758 4.10749 25 4.8902 25 5.70633C25 6.52247 24.6758 7.30518 24.0987 7.88227L13.6968 18.2796C12.8237 19.2868 11.5861 19.9056 10.1682 20.0029H4.99999V18.7529L5.00405 14.7341C5.11053 13.416 5.72332 12.1904 6.6581 11.3667L17.1192 0.905783C17.6954 0.326036 18.4791 0 19.2966 0Z" fill="white"/>
</svg>
