<svg width="25" height="23" viewBox="0 0 25 23" fill="none" xmlns="http://www.w3.org/2000/svg">
<path d="M2.27273 23C1.64773 23 1.11288 22.775 0.668182 22.3249C0.222727 21.8741 0 21.3325 0 20.7V6.9C0 6.2675 0.222727 5.72623 0.668182 5.2762C1.11288 4.8254 1.64773 4.6 2.27273 4.6H5.85227L7.95455 2.3H14.7727V6.9H18.1818V10.35H22.7273V20.7C22.7273 21.3325 22.5049 21.8741 22.0602 22.3249C21.6148 22.775 21.0795 23 20.4545 23H2.27273ZM11.3636 18.975C12.7841 18.975 13.9917 18.4721 14.9864 17.4662C15.9803 16.4596 16.4773 15.2375 16.4773 13.8C16.4773 12.3625 15.9803 11.1404 14.9864 10.1338C13.9917 9.12793 12.7841 8.625 11.3636 8.625C9.94318 8.625 8.73561 9.12793 7.74091 10.1338C6.74697 11.1404 6.25 12.3625 6.25 13.8C6.25 15.2375 6.74697 16.4596 7.74091 17.4662C8.73561 18.4721 9.94318 18.975 11.3636 18.975ZM11.3636 16.675C10.5682 16.675 9.89583 16.3971 9.34659 15.8412C8.79735 15.2854 8.52273 14.605 8.52273 13.8C8.52273 12.995 8.79735 12.3146 9.34659 11.7587C9.89583 11.2029 10.5682 10.925 11.3636 10.925C12.1591 10.925 12.8314 11.2029 13.3807 11.7587C13.9299 12.3146 14.2045 12.995 14.2045 13.8C14.2045 14.605 13.9299 15.2854 13.3807 15.8412C12.8314 16.3971 12.1591 16.675 11.3636 16.675ZM20.4545 6.9V4.6H18.1818V2.3H20.4545V0H22.7273V2.3H25V4.6H22.7273V6.9H20.4545Z" fill="#004FAA"/>
</svg>
