<svg width="27" height="27" viewBox="0 0 27 27" fill="none" xmlns="http://www.w3.org/2000/svg">
<path fill-rule="evenodd" clip-rule="evenodd" d="M13.5 27C6.04416 27 0 20.9558 0 13.5C0 6.04416 6.04416 0 13.5 0C20.9558 0 27 6.04416 27 13.5C27 20.9558 20.9558 27 13.5 27ZM13.5 24.5455C19.6002 24.5455 24.5455 19.6002 24.5455 13.5C24.5455 7.39976 19.6002 2.45455 13.5 2.45455C7.39976 2.45455 2.45455 7.39976 2.45455 13.5C2.45455 19.6002 7.39976 24.5455 13.5 24.5455ZM17.5189 16.3201L19.5266 17.7321C18.1569 19.6795 15.927 20.8636 13.5 20.8636C11.073 20.8636 8.84306 19.6795 7.4734 17.7321L9.48111 16.3201C10.3959 17.6207 11.8806 18.4091 13.5 18.4091C15.1194 18.4091 16.6041 17.6207 17.5189 16.3201ZM15.9545 12.2727V9.81818H18.4091V12.2727H15.9545ZM8.59091 12.2727V9.81818H11.0455V12.2727H8.59091Z" fill="white"/>
</svg>
