<svg width="10" height="10" viewBox="0 0 10 10" fill="none" xmlns="http://www.w3.org/2000/svg">
<path fill-rule="evenodd" clip-rule="evenodd" d="M5 10C2.23858 10 0 7.76142 0 5C0 2.23858 2.23858 0 5 0C7.76142 0 10 2.23858 10 5C10 7.76142 7.76142 10 5 10ZM5 9.09091C7.25935 9.09091 9.09091 7.25935 9.09091 5C9.09091 2.74065 7.25935 0.909091 5 0.909091C2.74065 0.909091 0.909091 2.74065 0.909091 5C0.909091 7.25935 2.74065 9.09091 5 9.09091ZM4.09091 5.72081L6.49677 3.31495L7.13959 3.95778L4.09091 7.00646L2.40586 5.32141L3.04868 4.67859L4.09091 5.72081Z" fill="white"/>
</svg>
