<svg width="25" height="31" viewBox="0 0 25 31" fill="none" xmlns="http://www.w3.org/2000/svg">
<path fill-rule="evenodd" clip-rule="evenodd" d="M11.2318 15.3361C12.0844 14.1887 11.9893 12.9803 11.3981 10.8066C10.2288 6.50757 10.6944 4.15126 14.7252 1.36159L16.6925 0L17.1683 2.28126C17.674 4.70568 18.5045 6.20519 20.6368 9.08951C20.7215 9.20408 20.7215 9.20408 20.8066 9.31916C23.8781 13.4742 25 15.9789 25 20.5275C25 26.0455 19.1823 31 12.5178 31C5.85291 31 0.0355528 26.0462 0.0355528 20.5275C0.0355528 20.4244 0.035663 20.4275 0.0174357 19.9716C-0.123544 16.4459 0.556389 13.6865 3.30756 10.7071C3.88884 10.0776 4.54957 9.47256 5.29311 8.89363L6.93451 7.61561L7.72407 9.49635C8.30749 10.886 8.99107 11.9785 9.76327 12.7801C10.4173 13.4591 10.9025 14.3129 11.2318 15.3361ZM5.64395 12.6906C3.52608 14.9842 3.02256 17.0276 3.1357 19.857C3.15676 20.3837 3.15611 20.3652 3.15611 20.5275C3.15611 24.3094 7.4993 28.0079 12.5178 28.0079C17.5358 28.0079 21.8794 24.3088 21.8794 20.5275C21.8794 16.7248 20.9928 14.7452 18.2607 11.0494C18.1761 10.935 18.1761 10.935 18.091 10.8199C16.4318 8.57556 15.4428 7.01438 14.7885 5.26837C13.7199 6.49613 13.7828 7.71724 14.4176 10.0515C15.5869 14.3505 15.1213 16.7068 11.0905 19.4965L8.79226 21.0871L8.61997 18.3743C8.50989 16.6411 8.10073 15.4641 7.47089 14.8103C6.84861 14.1642 6.28676 13.4079 5.78291 12.5427C5.73592 12.5918 5.6896 12.6411 5.64395 12.6906Z" fill="black"/>
</svg>
