<svg width="35" height="35" viewBox="0 0 35 35" fill="none" xmlns="http://www.w3.org/2000/svg">
<g clip-path="url(#clip0_1_643)">
<path d="M21.8887 16.666L18.4913 23.4609C18.0811 24.2881 16.8916 24.2607 16.5157 23.4199L12.626 14.7861L10.5752 19.6875H4.14262L16.6182 32.4365C17.1036 32.9355 17.8897 32.9355 18.375 32.4365L30.8575 19.6875H23.3995L21.8887 16.666ZM32.3819 5.05176L32.2178 4.88086C28.6973 1.28516 22.9346 1.28516 19.4073 4.88086L17.5 6.83594L15.5928 4.8877C12.0723 1.28516 6.30277 1.28516 2.78227 4.8877L2.6182 5.05176C-0.710898 8.45605 -0.854453 13.877 2.11918 17.5H9.11918L11.5733 11.6074C11.9424 10.7256 13.1866 10.7051 13.583 11.5801L17.5616 20.4189L20.9112 13.7266C21.3145 12.9199 22.4629 12.9199 22.8663 13.7266L24.753 17.5H32.8809C35.8545 13.877 35.711 8.45605 32.3819 5.05176Z" fill="#FF914D"/>
</g>
<defs>
<clipPath id="clip0_1_643">
<rect width="35" height="35" fill="white"/>
</clipPath>
</defs>
</svg>
