<svg width="28" height="35" viewBox="0 0 28 35" fill="none" xmlns="http://www.w3.org/2000/svg">
<path d="M14 17.5C14.9625 17.5 15.7867 17.157 16.4727 16.471C17.1576 15.7862 17.5 14.9625 17.5 14C17.5 13.0375 17.1576 12.2133 16.4727 11.5273C15.7867 10.8424 14.9625 10.5 14 10.5C13.0375 10.5 12.2138 10.8424 11.529 11.5273C10.843 12.2133 10.5 13.0375 10.5 14C10.5 14.9625 10.843 15.7862 11.529 16.471C12.2138 17.157 13.0375 17.5 14 17.5ZM14 35C9.30417 31.0042 5.79717 27.2924 3.479 23.8647C1.15967 20.4382 0 17.2667 0 14.35C0 9.975 1.40758 6.48958 4.22275 3.89375C7.03675 1.29792 10.2958 0 14 0C17.7042 0 20.9632 1.29792 23.7773 3.89375C26.5924 6.48958 28 9.975 28 14.35C28 17.2667 26.8409 20.4382 24.5228 23.8647C22.2034 27.2924 18.6958 31.0042 14 35Z" fill="#37645A"/>
</svg>
